# xmcd CD database file
#
# Track frame offsets:
#	150
#	16249
#	30554
#	42674
#	60268
#	83578
#	99807
#	118895
#	131819
#	145857
#	167749
#	185545
#	201920
#	227443
#
# Disc length: 3381 seconds
#
# Revision: 0
# Processed by: cddbd v1.4PL0 Copyright (c) Steve Scherf et al.
# Submitted via: CDex 1.50
#
DISCID=b30d330e
DTITLE=Live Bait - Acoustic Electric
DYEAR=1999
DGENRE=Blues
TTITLE0=Big Fish Fry
TTITLE1=Banks of the Ohio
TTITLE2=Ain't Misbehavin'
TTITLE3=Traveling Blues
TTITLE4=Lake Ponchartrain
TTITLE5=Jambalaya
TTITLE6=Careful With a Fool
TTITLE7=Jamaica Farewell
TTITLE8=Sleepy Time Gal
TTITLE9=The Dutchman
TTITLE10=Circle of Our Love
TTITLE11=Long Legged Lana
TTITLE12=He Was a Friend of Mine
TTITLE13=Revival Meeting
EXTD=YEAR: 1999
EXTT0=
EXTT1=
EXTT2=
EXTT3=
EXTT4=
EXTT5=
EXTT6=
EXTT7=
EXTT8=
EXTT9=
EXTT10=
EXTT11=
EXTT12=
EXTT13=
PLAYORDER=
